# xmcd CD database file
#
# Track frame offsets:
#	150
#	12195
#	30062
#	48472
#	62130
#	75335
#	84632
#	89502
#	99690
#	107525
#	117072
#	122992
#	137282
#	148877
#	159602
#	169835
#	183392
#	200010
#	214632
#	230900
#	252745
#	269090
#	281017
#	294425
#	303700
#	315250
#	328125
#
# Disc length: 4546 seconds
#
# Revision: 0
# Processed by: cddbd v1.4PL0 Copyright (c) Steve Scherf et al.
# Submitted via: CDex 1.40Beta8
#
DISCID=8e11c01b
DTITLE=Johnny Cash - Bring It Back Alive
DYEAR=1900
DGENRE=Country
TTITLE0=Ring Of Fire
TTITLE1=Folsom Prison Blues
TTITLE2=Sunday Morning Coming Down
TTITLE3=Get Rhythm
TTITLE4=Any Old Wind That Blows
TTITLE5=Under The Double Eagle
TTITLE6=Ride This Train
TTITLE7=Five Feet High And Rising
TTITLE8=Pickin' Time
TTITLE9=Busted
TTITLE10=No Setting Sun
TTITLE11=Hey Porter
TTITLE12=Ragged Old Flag
TTITLE13=You Win Again
TTITLE14=Big River
TTITLE15=I Stilll Miss Someone
TTITLE16=Call Me The Breeze
TTITLE17=Tennessee Flat-top Box
TTITLE18=(ghost) Riders In The Sky
TTITLE19=Jackson
TTITLE20=If I Were A Carpenter
TTITLE21=Far Side Banks Of Jordan
TTITLE22=Wreck Of The Old 97
TTITLE23=Gospel Boogie
TTITLE24=Oh Come, Angel Band
TTITLE25=The Forth Man
TTITLE26=I Walk The Line
EXTD=ID3G: 2
EXTT0=
EXTT1=
EXTT2=
EXTT3=
EXTT4=
EXTT5=
EXTT6=
EXTT7=
EXTT8=
EXTT9=
EXTT10=
EXTT11=
EXTT12=
EXTT13=
EXTT14=
EXTT15=
EXTT16=
EXTT17=
EXTT18=
EXTT19=
EXTT20=
EXTT21=
EXTT22=
EXTT23=
EXTT24=
EXTT25=
EXTT26=
PLAYORDER=
